Hugo 2011 CaM XviD - ILLUMINATI

IMDB 
http://www.imdb.com/title/tt0970179/

plot
Set in 1930s Paris, an orphan who lives
in the walls of a train station is wrapped
up in a mystery involving his late father
and an automaton.

source
Hugo 2011 720p CaM XviD - ILLUMINATI

Thanks :w00t:


info

Video
ID                               : 0
Format                           : MPEG-4 Visual
Format profile                   : Advanced Simple@L5
Format settings, BVOP            : 2
Format settings, QPel            : No
Format settings, GMC             : No warppoints
Format settings, Matrix          : Default (H.263)
Codec ID                         : XVID
Codec ID/Hint                    : XviD
Duration                         : 2h 0mn
Bit rate                         : 1 698 Kbps
Width                            : 720 pixels
Height                           : 304 pixels
Display aspect ratio             : 2.35:1
Frame rate                       : 24.000 fps
Color space                      : YUV
Chroma subsampling               : 4:2:0
Bit depth                        : 8 bits
Scan type                        : Progressive
Compression mode                 : Lossy
Bits/(Pixel*Frame)               : 0.323
Stream size                      : 1.43 GiB (93%)

audio
ID                               : 1
Format                           : MPEG Audio
Format version                   : Version 1
Format profile                   : Layer 3
Codec ID                         : 55
Codec ID/Hint                    : MP3
Duration                         : 2h 0mn
Bit rate mode                    : Constant
Bit rate                         : 128 Kbps
Channel(s)                       : 2 channels
Sampling rate                    : 44.1 KHz
Compression mode                 : Lossy
Stream size                      : 111 MiB (7%)
Alignment                        : Split accross interleaves
Interleave, duration             : 42 ms (1.00 video frame)
Writing library                  : LAME3.98.4

notes
ok here we have a very nice cam of HUGO that we ripped
from 720p files and what a awesome release this is as you
will see from the screens

for thos interested maybe :yes: maybe there will be a
release of a 720p Cam or..... we may wait to see if
any other group comes up with any line to make 1
hell of a TS 


Poster:

 
http://i.imgur.com/w1QiD.jpg


Screenshots:

 
http://i.imgur.com/0onLY.jpg


ENJOY!